<?xml version="1.0" encoding="UTF-8" standalone="no" ?>
<!DOCTYPE svg PUBLIC "-//W3C//DTD SVG 1.1//EN" "http://www.w3.org/Graphics/SVG/1.1/DTD/svg11.dtd">
<svg xmlns="http://www.w3.org/2000/svg" xmlns:xlink="http://www.w3.org/1999/xlink" version="1.1" width="640" height="640" viewBox="0 0 640 640" xml:space="preserve">
<desc>Created with Fabric.js 5.3.0</desc>
<defs>
</defs>
<g transform="matrix(1.4155234288 0 0 1.4155234288 320 320)" id="QcGA4YPaU_EDuEwsNb5Im"  >
<path style="stroke: rgb(75,75,75); stroke-width: 6; stroke-dasharray: none; stroke-linecap: butt; stroke-dashoffset: 0; stroke-linejoin: miter; stroke-miterlimit: 4; fill: rgb(255,255,255); fill-rule: nonzero; opacity: 1;"  transform=" translate(0.000005, 0)" d="M -216.3871 -175.2924 C -216.3871 -197.91710999999998 -198.04615 -216.25806 -175.42144000000002 -216.25806 L 175.42143 -216.25806 C 198.04613999999998 -216.25806 216.38709 -197.91711 216.38709 -175.2924 L 216.38709 108.19563 C 216.38709 130.82034 198.04614 149.16129 175.42143 149.16129 L 0 149.16129 L -152.42362 216.25806 L -152.42362 149.16129 L -175.42144 149.16129 C -198.04614999999998 149.16129 -216.38709999999998 130.82034000000002 -216.38709999999998 108.19563000000001 z M -185.8635 -127.87406 C -185.8635 -118.92249 -178.60682 -111.6658 -169.65524 -111.6658 L 166.5014 -111.6658 C 175.45297 -111.6658 182.70965999999999 -118.92248000000001 182.70965999999999 -127.87406 L 182.70965999999999 -137.08206 C 182.70965999999999 -146.03363000000002 175.45298 -153.29032 166.5014 -153.29032 L -169.65524 -153.29032 C -178.60681 -153.29032 -185.8635 -146.03364000000002 -185.8635 -137.08206 z M -185.8635 -32.04116 C -185.8635 -23.089589999999998 -178.60682 -15.832899999999999 -169.65524 -15.832899999999999 L 166.5014 -15.832899999999999 C 175.45297 -15.832899999999999 182.70965999999999 -23.089579999999998 182.70965999999999 -32.04116 L 182.70965999999999 -41.249159999999996 C 182.70965999999999 -50.20072999999999 175.45298 -57.45742 166.5014 -57.45742 L -169.65524 -57.45742 C -178.60681 -57.45742 -185.8635 -50.200739999999996 -185.8635 -41.24916 z M -185.86349 63.79174 C -185.86349 72.74331 -178.60681000000002 80 -169.65523000000002 80 L -12.387660000000011 80 C -3.4360900000000107 80 3.8205999999999882 72.74332 3.8205999999999882 63.791740000000004 L 3.8205999999999882 54.583740000000006 C 3.8205999999999882 45.63217 -3.436080000000012 38.37548000000001 -12.387660000000011 38.37548000000001 L -169.65523000000002 38.37548000000001 C -178.60680000000002 38.37548000000001 -185.86349 45.63216000000001 -185.86349 54.583740000000006 z" stroke-linecap="round" />
</g>
<g transform="matrix(2.6008564678 0 0 2.6008564678 497.4435483871 413.2177419355)" id="HoD5Bsl1q2ascSFUIAbW8"  >
<path style="stroke: rgb(75,75,75); stroke-width: 6; stroke-dasharray: none; stroke-linecap: butt; stroke-dashoffset: 0; stroke-linejoin: miter; stroke-miterlimit: 4; fill: rgb(255,37,37); fill-rule: nonzero; opacity: 1;"  transform=" translate(0, 0)" d="M 0 -51.6129 C 28.49032 -51.6129 51.6129 -28.490320000000004 51.6129 0 C 51.6129 28.49032 28.490320000000004 51.6129 0 51.6129 C -28.49032 51.6129 -51.6129 28.490320000000004 -51.6129 0 C -51.6129 -28.49032 -28.490320000000004 -51.6129 0 -51.6129 z" stroke-linecap="round" />
</g>
</svg>